<?xml version="1.0" encoding="UTF-8"?><!DOCTYPE svg PUBLIC "-//W3C//DTD SVG 1.1//EN" "http://www.w3.org/Graphics/SVG/1.1/DTD/svg11.dtd"><svg xmlns="http://www.w3.org/2000/svg" xmlns:xlink="http://www.w3.org/1999/xlink" version="1.1" id="Twitter" x="0px" y="0px" viewBox="0 0 20 20" xml:space="preserve"><path d="M17.316 6.246c.008.162.011.326.011.488 0 4.99-3.797 10.742-10.74 10.742-2.133 0-4.116-.625-5.787-1.697a7.577 7.577 0 0 0 5.588-1.562 3.779 3.779 0 0 1-3.526-2.621 3.858 3.858 0 0 0 1.705-.065 3.779 3.779 0 0 1-3.028-3.703v-.047a3.766 3.766 0 0 0 1.71.473 3.775 3.775 0 0 1-1.168-5.041 10.716 10.716 0 0 0 7.781 3.945 3.813 3.813 0 0 1-.097-.861 3.773 3.773 0 0 1 3.774-3.773 3.77 3.77 0 0 1 2.756 1.191 7.602 7.602 0 0 0 2.397-.916 3.789 3.789 0 0 1-1.66 2.088 7.55 7.55 0 0 0 2.168-.594 7.623 7.623 0 0 1-1.884 1.953z"/><metadata><rdf:RDF xmlns:rdf="http://www.w3.org/1999/02/22-rdf-syntax-ns#" xmlns:rdfs="http://www.w3.org/2000/01/rdf-schema#" xmlns:dc="http://purl.org/dc/elements/1.1/"><rdf:Description about="https://iconscout.com/legal#licenses" dc:title="twitter" dc:description="twitter" dc:publisher="Iconscout" dc:date="2017-09-14" dc:format="image/svg+xml" dc:language="en"><dc:creator><rdf:Bag><rdf:li>Daniel Bruce</rdf:li></rdf:Bag></dc:creator></rdf:Description></rdf:RDF></metadata></svg>