<?xml version="1.0" encoding="UTF-8"?><!DOCTYPE svg PUBLIC "-//W3C//DTD SVG 1.1//EN" "http://www.w3.org/Graphics/SVG/1.1/DTD/svg11.dtd"><svg xmlns="http://www.w3.org/2000/svg" xmlns:xlink="http://www.w3.org/1999/xlink" version="1.1" id="Youtube_w_x2F__circle" x="0px" y="0px" viewBox="0 0 20 20" xml:space="preserve"><path d="M11.603 9.833L9.357 8.785C9.161 8.694 9 8.796 9 9.013v1.974c0 .217.161.319.357.228l2.245-1.048c.197-.092.197-.242.001-.334zM10 .4C4.698.4.4 4.698.4 10s4.298 9.6 9.6 9.6 9.6-4.298 9.6-9.6S15.302.4 10 .4zm0 13.5c-4.914 0-5-.443-5-3.9s.086-3.9 5-3.9 5 .443 5 3.9-.086 3.9-5 3.9z"/><metadata><rdf:RDF xmlns:rdf="http://www.w3.org/1999/02/22-rdf-syntax-ns#" xmlns:rdfs="http://www.w3.org/2000/01/rdf-schema#" xmlns:dc="http://purl.org/dc/elements/1.1/"><rdf:Description about="https://iconscout.com/legal#licenses" dc:title="youtube,with,circle" dc:description="youtube,with,circle" dc:publisher="Iconscout" dc:date="2017-09-14" dc:format="image/svg+xml" dc:language="en"><dc:creator><rdf:Bag><rdf:li>Daniel Bruce</rdf:li></rdf:Bag></dc:creator></rdf:Description></rdf:RDF></metadata></svg>